Coordinates
version=1
nRows=19
nColumns=30
inDegrees=yes

Units are S.I. units (second, meters, Newtons, ...)
Angles are in degrees.

endheader
time	floatyaw	floatroll	floatpitch	floatx	floaty	floatz	pro_sup_l	deviation_l	flexion_l	cmc_flexion_l	cmc_abduction_l	mp_flexion_l	ip_flexion_l	2mcp_flexion_l	2mcp_abduction_l	2pm_flexion_l	2md_flexion_l	3mcp_flexion_l	3mcp_abduction_l	3pm_flexion_l	3md_flexion_l	4mcp_flexion_l	4mcp_abduction_l	4pm_flexion_l	4md_flexion_l	5mcp_flexion_l	5mcp_abduction_l	5pm_flexion_l	5md_flexion_l
-0.495000	-160.147433	-5.066637	-73.570646	0.068178	-0.173335	-0.023567	101.599937	8.462074	-0.647801	14.683602	14.507766	-25.436088	-44.114091	28.411833	6.927506	45.140925	31.481732	25.496804	4.262073	44.073564	29.360949	15.489532	-4.199175	50.758886	36.526681	2.357049	-8.652518	60.215162	44.033144
-0.485000	-160.147433	-5.066637	-73.570646	0.068036	-0.173125	-0.023705	101.546570	8.548841	-0.627119	14.621528	14.528400	-25.441966	-44.083382	28.465859	6.934549	45.188983	31.534196	25.543646	4.260745	44.026786	29.339618	15.502657	-4.201441	50.781628	36.465465	2.377610	-8.634849	60.185669	43.979442
-0.475000	-160.147433	-5.066637	-73.570646	0.067864	-0.172892	-0.023878	101.507499	8.645683	-0.643454	14.561788	14.551296	-25.466799	-44.074096	28.535964	6.945099	45.202675	31.565211	25.591252	4.257739	43.947118	29.302669	15.533370	-4.202292	50.750135	36.398854	2.423490	-8.632943	60.114476	43.923151
-0.465000	-160.147433	-5.066637	-73.570646	0.067652	-0.172616	-0.024100	101.507256	8.753719	-0.693043	14.515166	14.574651	-25.514365	-44.098750	28.618384	6.960952	45.171239	31.571386	25.638634	4.252408	43.841478	29.252068	15.588686	-4.202116	50.651240	36.333793	2.493412	-8.653544	60.007727	43.878625
-0.455000	-160.147433	-5.066637	-73.570646	0.067396	-0.172281	-0.024381	101.564399	8.874568	-0.763946	14.488950	14.601377	-25.576728	-44.159939	28.700022	6.983756	45.101602	31.559305	25.679537	4.244584	43.730422	29.196473	15.662181	-4.201484	50.498393	36.280682	2.573211	-8.695753	59.887492	43.858755
-0.445000	-160.147433	-5.066637	-73.570646	0.067094	-0.171887	-0.024719	101.687320	9.009724	-0.840916	14.484345	14.645223	-25.631034	-44.245176	28.760316	7.012415	45.018289	31.543499	25.704018	4.235054	43.640220	29.148489	15.735557	-4.201000	50.328450	36.249877	2.641561	-8.748150	59.782769	43.868873
-0.435000	-160.147433	-5.066637	-73.570646	0.066743	-0.171440	-0.025106	101.872475	9.160335	-0.913048	14.496227	14.731613	-25.644519	-44.327528	28.777236	7.040960	44.953952	31.538792	25.702068	4.225509	43.591628	29.119281	15.786182	-4.201343	50.186829	36.247167	2.678906	-8.789806	59.715710	43.903106
-0.425000	-160.147433	-5.066637	-73.570646	0.066338	-0.170957	-0.025533	102.105527	9.327263	-0.980034	14.516229	14.889315	-25.587713	-44.373657	28.734334	7.059197	44.935509	31.551659	25.667146	4.217952	43.590929	29.113258	15.796615	-4.203353	50.108511	36.270215	2.675832	-8.797067	59.691145	43.945501
-0.415000	-160.147433	-5.066637	-73.570646	0.065861	-0.170451	-0.026000	102.366014	9.510660	-1.052367	14.538062	15.134888	-25.449818	-44.355689	28.625131	7.056881	44.973777	31.576512	25.597866	4.213904	43.627847	29.126021	15.761051	-4.207865	50.104735	36.307939	2.637103	-8.754804	59.696155	43.976062
-0.405000	-160.147433	-5.066637	-73.570646	0.065292	-0.169925	-0.026517	102.634735	9.708674	-1.144026	14.561599	15.458364	-25.247120	-44.260200	28.453673	7.029490	45.061244	31.599211	25.497753	4.213725	43.681095	29.146609	15.686321	-4.215118	50.160603	36.343433	2.579477	-8.666664	59.709791	43.979120
-0.395000	-160.147433	-5.066637	-73.570646	0.064614	-0.169375	-0.027100	102.901122	9.916277	-1.260780	14.592500	15.820196	-25.018722	-44.090918	28.232492	6.981899	45.176380	31.604326	25.373803	4.216269	43.727566	29.162005	15.588185	-4.224085	50.241947	36.358925	2.523905	-8.557353	59.715812	43.949671
-0.385000	-160.147433	-5.066637	-73.570646	0.063826	-0.168790	-0.027766	103.167559	10.126082	-1.390262	14.637561	16.163673	-24.812047	-43.868277	27.979300	6.926993	45.289984	31.580511	25.234160	4.219011	43.749313	29.160634	15.484999	-4.232429	50.306486	36.340329	2.484993	-8.463553	59.709582	43.894190
-0.375000	-160.147433	-5.066637	-73.570646	0.062938	-0.168155	-0.028526	103.449109	10.332329	-1.499854	14.699203	16.437613	-24.666596	-43.630565	27.713269	6.879529	45.371986	31.521790	25.085519	4.218750	43.735521	29.133526	15.391365	-4.237572	50.315605	36.279895	2.462641	-8.417032	59.695725	43.825753
-0.365000	-160.147433	-5.066637	-73.570646	0.061969	-0.167447	-0.029391	103.768462	10.536988	-1.545235	14.772623	16.618005	-24.603723	-43.435178	27.452353	6.848874	45.400810	31.427622	24.932232	4.212800	43.682374	29.075050	15.315100	-4.238467	50.245584	36.177201	2.441178	-8.428726	59.680747	43.756773
-0.355000	-160.147433	-5.066637	-73.570646	0.060928	-0.166634	-0.030377	104.146686	10.755007	-1.487555	14.846865	16.718009	-24.624303	-43.351672	27.212928	6.835069	45.375512	31.305080	24.779247	4.200106	43.595849	28.985762	15.259711	-4.236709	50.097395	36.039591	2.398202	-8.482214	59.668253	43.693659
-0.345000	-160.147433	-5.066637	-73.570646	0.059805	-0.165674	-0.031511	104.591947	11.015553	-1.312951	14.908738	16.781666	-24.710989	-43.439825	27.010672	6.830332	45.324117	31.171867	24.638513	4.181660	43.497602	28.876648	15.231165	-4.235543	49.901734	35.882297	2.319732	-8.540100	59.661122	43.636002
-0.335000	-160.147433	-5.066637	-73.570646	0.058567	-0.164518	-0.032825	105.090627	11.357743	-1.046585	14.947252	16.864088	-24.830923	-43.717045	26.859322	6.824533	45.298169	31.054749	24.534859	4.160007	43.426340	28.769853	15.244456	-4.236653	49.713305	35.726751	2.214165	-8.560522	59.667614	43.579694
-0.325000	-160.147433	-5.066637	-73.570646	0.057166	-0.163125	-0.034354	105.605571	11.821657	-0.755049	14.956116	17.007210	-24.938045	-44.131997	26.764932	6.810796	45.349922	30.979847	24.505616	4.138309	43.425414	28.691079	15.325226	-4.236671	49.590050	35.594876	2.117418	-8.515985	59.701816	43.520518
-0.315000	-160.147433	-5.066637	-73.570646	0.055542	-0.161463	-0.036124	106.083474	12.437548	-0.534785	14.933301	17.222900	-24.978396	-44.564884	26.717579	6.787622	45.501038	30.958018	24.590247	4.119533	43.516290	28.654570	15.504240	-4.226559	49.560699	35.499194	2.085049	-8.405216	59.769735	43.454116
